<svg width="200" height="200" viewBox="0 0 200 200" fill="none" xmlns="http://www.w3.org/2000/svg">
<g clip-path="url(#clip0_39_549)">
<path d="M133.333 169.333C133.333 178.372 132.134 187.13 129.887 195.458C170.516 182.75 200 144.818 200 100C200 82.6304 195.572 66.2952 187.782 52.0618C186.527 52.0207 185.266 52 184 52C148.027 52 116.49 68.7156 98.872 93.802C119.984 112.137 133.333 139.176 133.333 169.333Z" fill="#036D19"/>
<path fill-rule="evenodd" clip-rule="evenodd" d="M3.44682 73.8758C12.8842 70.9241 22.923 69.3333 33.3333 69.3333C58.4045 69.3333 81.3207 78.5596 98.872 93.802C116.49 68.7156 148.027 52 184 52C185.266 52 186.527 52.0207 187.782 52.0618C170.804 21.0384 137.859 0 100 0C53.8098 0 14.934 31.3167 3.44682 73.8758ZM116 42.6667C123.364 42.6667 129.333 36.6971 129.333 29.3333C129.333 21.9695 123.364 16 116 16C108.636 16 102.667 21.9695 102.667 29.3333C102.667 36.6971 108.636 42.6667 116 42.6667Z" fill="black"/>
<path d="M0 100C0 155.228 44.7715 200 100 200C103.477 200 106.912 199.823 110.297 199.476C115.687 198.925 120.95 197.946 126.053 196.573C128.193 188.52 129.333 180.06 129.333 171.333C129.333 117.209 85.4572 73.3333 31.3333 73.3333C21.3019 73.3333 11.6224 74.8406 2.50911 77.6409C0.867203 84.8297 0 92.3136 0 100Z" fill="black"/>
</g>
<defs>
<clipPath id="clip0_39_549">
<rect width="200" height="200" fill="white"/>
</clipPath>
</defs>
</svg>
